<mxfile host="Electron" agent="Mozilla/5.0 (Windows NT 10.0; Win64; x64) AppleWebKit/537.36 (KHTML, like Gecko) draw.io/27.0.9 Chrome/134.0.6998.205 Electron/35.4.0 Safari/537.36" version="27.0.9">
  <diagram name="PÃ¡gina-1" id="DGZuAzfP4X44gKwV9tHC">
    <mxGraphModel dx="2316" dy="1391" grid="1" gridSize="10" guides="1" tooltips="1" connect="1" arrows="1" fold="1" page="1" pageScale="1" pageWidth="827" pageHeight="1169" math="0" shadow="0">
      <root>
        <mxCell id="0" />
        <mxCell id="1" parent="0" />
        <mxCell id="w8xizkPaOWsEXi7ShhKc-2" value="" style="endArrow=none;html=1;rounded=0;entryX=0.5;entryY=1;entryDx=0;entryDy=0;" edge="1" parent="1">
          <mxGeometry width="50" height="50" relative="1" as="geometry">
            <mxPoint x="833" y="90" as="sourcePoint" />
            <mxPoint x="833.0000000000001" y="50.00000000000006" as="targetPoint" />
          </mxGeometry>
        </mxCell>
        <mxCell id="w8xizkPaOWsEXi7ShhKc-3" value="Login SSO" style="rounded=0;whiteSpace=wrap;html=1;" vertex="1" parent="1">
          <mxGeometry x="773" y="90" width="120" height="60" as="geometry" />
        </mxCell>
        <mxCell id="w8xizkPaOWsEXi7ShhKc-4" value="" style="endArrow=none;html=1;rounded=0;entryX=0;entryY=0.5;entryDx=0;entryDy=0;" edge="1" parent="1" target="w8xizkPaOWsEXi7ShhKc-3">
          <mxGeometry width="50" height="50" relative="1" as="geometry">
            <mxPoint x="610" y="120" as="sourcePoint" />
            <mxPoint x="770" y="120" as="targetPoint" />
          </mxGeometry>
        </mxCell>
        <mxCell id="w8xizkPaOWsEXi7ShhKc-5" value="" style="endArrow=classic;html=1;rounded=0;entryX=0.5;entryY=0;entryDx=0;entryDy=0;" edge="1" parent="1" target="w8xizkPaOWsEXi7ShhKc-12">
          <mxGeometry width="50" height="50" relative="1" as="geometry">
            <mxPoint x="610" y="120" as="sourcePoint" />
            <mxPoint x="610" y="210" as="targetPoint" />
          </mxGeometry>
        </mxCell>
        <mxCell id="w8xizkPaOWsEXi7ShhKc-7" value="" style="endArrow=none;html=1;rounded=0;" edge="1" parent="1">
          <mxGeometry width="50" height="50" relative="1" as="geometry">
            <mxPoint x="893" y="119.74000000000001" as="sourcePoint" />
            <mxPoint x="1100" y="120" as="targetPoint" />
          </mxGeometry>
        </mxCell>
        <mxCell id="w8xizkPaOWsEXi7ShhKc-8" value="" style="endArrow=classic;html=1;rounded=0;entryX=0.5;entryY=0;entryDx=0;entryDy=0;" edge="1" parent="1">
          <mxGeometry width="50" height="50" relative="1" as="geometry">
            <mxPoint x="1100" y="120" as="sourcePoint" />
            <mxPoint x="1100" y="160" as="targetPoint" />
          </mxGeometry>
        </mxCell>
        <mxCell id="w8xizkPaOWsEXi7ShhKc-9" value="Web" style="text;html=1;align=center;verticalAlign=middle;resizable=0;points=[];autosize=1;strokeColor=none;fillColor=none;" vertex="1" parent="1">
          <mxGeometry x="680" y="90" width="50" height="30" as="geometry" />
        </mxCell>
        <mxCell id="w8xizkPaOWsEXi7ShhKc-10" value="Movil" style="text;html=1;align=center;verticalAlign=middle;resizable=0;points=[];autosize=1;strokeColor=none;fillColor=none;" vertex="1" parent="1">
          <mxGeometry x="945" y="88" width="50" height="30" as="geometry" />
        </mxCell>
        <mxCell id="w8xizkPaOWsEXi7ShhKc-11" value="Inicio" style="ellipse;whiteSpace=wrap;html=1;" vertex="1" parent="1">
          <mxGeometry x="800" y="10" width="66" height="40" as="geometry" />
        </mxCell>
        <mxCell id="w8xizkPaOWsEXi7ShhKc-13" style="edgeStyle=orthogonalEdgeStyle;rounded=0;orthogonalLoop=1;jettySize=auto;html=1;" edge="1" parent="1" source="w8xizkPaOWsEXi7ShhKc-12">
          <mxGeometry relative="1" as="geometry">
            <mxPoint x="610" y="310" as="targetPoint" />
          </mxGeometry>
        </mxCell>
        <mxCell id="w8xizkPaOWsEXi7ShhKc-12" value="CRUD Formulario" style="rounded=0;whiteSpace=wrap;html=1;" vertex="1" parent="1">
          <mxGeometry x="550" y="210" width="120" height="60" as="geometry" />
        </mxCell>
        <mxCell id="w8xizkPaOWsEXi7ShhKc-15" value="Estado inicial: Borrador" style="rounded=1;whiteSpace=wrap;html=1;" vertex="1" parent="1">
          <mxGeometry x="550" y="310" width="120" height="60" as="geometry" />
        </mxCell>
        <mxCell id="w8xizkPaOWsEXi7ShhKc-16" value="" style="endArrow=none;html=1;rounded=0;entryX=0.5;entryY=1;entryDx=0;entryDy=0;" edge="1" parent="1" target="w8xizkPaOWsEXi7ShhKc-15">
          <mxGeometry width="50" height="50" relative="1" as="geometry">
            <mxPoint x="610" y="400" as="sourcePoint" />
            <mxPoint x="590" y="380" as="targetPoint" />
          </mxGeometry>
        </mxCell>
        <mxCell id="w8xizkPaOWsEXi7ShhKc-17" value="" style="endArrow=none;html=1;rounded=0;" edge="1" parent="1">
          <mxGeometry width="50" height="50" relative="1" as="geometry">
            <mxPoint x="440" y="400" as="sourcePoint" />
            <mxPoint x="790" y="400" as="targetPoint" />
          </mxGeometry>
        </mxCell>
        <mxCell id="w8xizkPaOWsEXi7ShhKc-18" value="" style="endArrow=classic;html=1;rounded=0;entryX=0.498;entryY=-0.041;entryDx=0;entryDy=0;entryPerimeter=0;" edge="1" parent="1">
          <mxGeometry width="50" height="50" relative="1" as="geometry">
            <mxPoint x="440.24" y="400" as="sourcePoint" />
            <mxPoint x="440" y="456.5400000000001" as="targetPoint" />
          </mxGeometry>
        </mxCell>
        <mxCell id="w8xizkPaOWsEXi7ShhKc-20" style="edgeStyle=orthogonalEdgeStyle;rounded=0;orthogonalLoop=1;jettySize=auto;html=1;" edge="1" parent="1" source="w8xizkPaOWsEXi7ShhKc-19" target="w8xizkPaOWsEXi7ShhKc-21">
          <mxGeometry relative="1" as="geometry">
            <mxPoint x="440" y="560" as="targetPoint" />
          </mxGeometry>
        </mxCell>
        <mxCell id="w8xizkPaOWsEXi7ShhKc-19" value="Duplicar formulario" style="rounded=0;whiteSpace=wrap;html=1;" vertex="1" parent="1">
          <mxGeometry x="380" y="459" width="120" height="60" as="geometry" />
        </mxCell>
        <mxCell id="w8xizkPaOWsEXi7ShhKc-25" style="edgeStyle=orthogonalEdgeStyle;rounded=0;orthogonalLoop=1;jettySize=auto;html=1;entryX=0;entryY=0.5;entryDx=0;entryDy=0;" edge="1" parent="1" source="w8xizkPaOWsEXi7ShhKc-21" target="w8xizkPaOWsEXi7ShhKc-23">
          <mxGeometry relative="1" as="geometry" />
        </mxCell>
        <mxCell id="w8xizkPaOWsEXi7ShhKc-21" value="Nuevo formulario con estado &quot;borrador&quot;" style="rounded=1;whiteSpace=wrap;html=1;" vertex="1" parent="1">
          <mxGeometry x="380" y="545" width="120" height="60" as="geometry" />
        </mxCell>
        <mxCell id="w8xizkPaOWsEXi7ShhKc-22" value="" style="endArrow=classic;html=1;rounded=0;entryX=0.498;entryY=-0.041;entryDx=0;entryDy=0;entryPerimeter=0;" edge="1" parent="1">
          <mxGeometry width="50" height="50" relative="1" as="geometry">
            <mxPoint x="610.24" y="400" as="sourcePoint" />
            <mxPoint x="610" y="456.5400000000001" as="targetPoint" />
          </mxGeometry>
        </mxCell>
        <mxCell id="w8xizkPaOWsEXi7ShhKc-26" style="edgeStyle=orthogonalEdgeStyle;rounded=0;orthogonalLoop=1;jettySize=auto;html=1;" edge="1" parent="1" source="w8xizkPaOWsEXi7ShhKc-23" target="w8xizkPaOWsEXi7ShhKc-28">
          <mxGeometry relative="1" as="geometry">
            <mxPoint x="610" y="550" as="targetPoint" />
          </mxGeometry>
        </mxCell>
        <mxCell id="w8xizkPaOWsEXi7ShhKc-23" value="Configurar formulario" style="rounded=0;whiteSpace=wrap;html=1;" vertex="1" parent="1">
          <mxGeometry x="550" y="459" width="120" height="60" as="geometry" />
        </mxCell>
        <mxCell id="w8xizkPaOWsEXi7ShhKc-33" style="edgeStyle=orthogonalEdgeStyle;rounded=0;orthogonalLoop=1;jettySize=auto;html=1;entryX=0.5;entryY=0;entryDx=0;entryDy=0;" edge="1" parent="1" source="w8xizkPaOWsEXi7ShhKc-28" target="w8xizkPaOWsEXi7ShhKc-31">
          <mxGeometry relative="1" as="geometry" />
        </mxCell>
        <mxCell id="w8xizkPaOWsEXi7ShhKc-28" value="Nueva version del formulario" style="rounded=1;whiteSpace=wrap;html=1;" vertex="1" parent="1">
          <mxGeometry x="550" y="540" width="120" height="60" as="geometry" />
        </mxCell>
        <mxCell id="w8xizkPaOWsEXi7ShhKc-29" value="" style="endArrow=classic;html=1;rounded=0;entryX=0.543;entryY=-0.01;entryDx=0;entryDy=0;entryPerimeter=0;" edge="1" parent="1" target="w8xizkPaOWsEXi7ShhKc-30">
          <mxGeometry width="50" height="50" relative="1" as="geometry">
            <mxPoint x="790" y="400" as="sourcePoint" />
            <mxPoint x="784.77" y="459.00000000000006" as="targetPoint" />
          </mxGeometry>
        </mxCell>
        <mxCell id="w8xizkPaOWsEXi7ShhKc-32" value="" style="edgeStyle=orthogonalEdgeStyle;rounded=0;orthogonalLoop=1;jettySize=auto;html=1;" edge="1" parent="1" source="w8xizkPaOWsEXi7ShhKc-30" target="w8xizkPaOWsEXi7ShhKc-31">
          <mxGeometry relative="1" as="geometry" />
        </mxCell>
        <mxCell id="w8xizkPaOWsEXi7ShhKc-30" value="Publicar Formulario" style="rounded=0;whiteSpace=wrap;html=1;" vertex="1" parent="1">
          <mxGeometry x="725" y="459" width="120" height="60" as="geometry" />
        </mxCell>
        <mxCell id="w8xizkPaOWsEXi7ShhKc-34" style="edgeStyle=orthogonalEdgeStyle;rounded=0;orthogonalLoop=1;jettySize=auto;html=1;entryX=1;entryY=0.5;entryDx=0;entryDy=0;" edge="1" parent="1" source="w8xizkPaOWsEXi7ShhKc-31" target="w8xizkPaOWsEXi7ShhKc-23">
          <mxGeometry relative="1" as="geometry" />
        </mxCell>
        <mxCell id="w8xizkPaOWsEXi7ShhKc-36" style="edgeStyle=orthogonalEdgeStyle;rounded=0;orthogonalLoop=1;jettySize=auto;html=1;" edge="1" parent="1" source="w8xizkPaOWsEXi7ShhKc-31" target="w8xizkPaOWsEXi7ShhKc-37">
          <mxGeometry relative="1" as="geometry">
            <mxPoint x="900" y="677.5" as="targetPoint" />
          </mxGeometry>
        </mxCell>
        <mxCell id="w8xizkPaOWsEXi7ShhKc-31" value="Â¿Listo para publicar?" style="rhombus;whiteSpace=wrap;html=1;rounded=0;" vertex="1" parent="1">
          <mxGeometry x="740" y="635" width="90" height="85" as="geometry" />
        </mxCell>
        <mxCell id="w8xizkPaOWsEXi7ShhKc-35" value="No" style="text;html=1;align=center;verticalAlign=middle;resizable=0;points=[];autosize=1;strokeColor=none;fillColor=none;" vertex="1" parent="1">
          <mxGeometry x="700" y="648" width="40" height="30" as="geometry" />
        </mxCell>
        <mxCell id="w8xizkPaOWsEXi7ShhKc-39" style="edgeStyle=orthogonalEdgeStyle;rounded=0;orthogonalLoop=1;jettySize=auto;html=1;" edge="1" parent="1" source="w8xizkPaOWsEXi7ShhKc-37" target="w8xizkPaOWsEXi7ShhKc-40">
          <mxGeometry relative="1" as="geometry">
            <mxPoint x="874" y="860" as="targetPoint" />
          </mxGeometry>
        </mxCell>
        <mxCell id="w8xizkPaOWsEXi7ShhKc-37" value="Cambiar estado a &quot;publicado&quot;" style="whiteSpace=wrap;html=1;aspect=fixed;" vertex="1" parent="1">
          <mxGeometry x="834" y="740" width="80" height="80" as="geometry" />
        </mxCell>
        <mxCell id="w8xizkPaOWsEXi7ShhKc-38" value="Si" style="text;html=1;align=center;verticalAlign=middle;resizable=0;points=[];autosize=1;strokeColor=none;fillColor=none;" vertex="1" parent="1">
          <mxGeometry x="835" y="648" width="30" height="30" as="geometry" />
        </mxCell>
        <mxCell id="w8xizkPaOWsEXi7ShhKc-45" style="edgeStyle=orthogonalEdgeStyle;rounded=0;orthogonalLoop=1;jettySize=auto;html=1;" edge="1" parent="1" source="w8xizkPaOWsEXi7ShhKc-40" target="w8xizkPaOWsEXi7ShhKc-46">
          <mxGeometry relative="1" as="geometry">
            <mxPoint x="874" y="980" as="targetPoint" />
          </mxGeometry>
        </mxCell>
        <mxCell id="w8xizkPaOWsEXi7ShhKc-40" value="Enviar formulario a la app movil" style="rounded=0;whiteSpace=wrap;html=1;" vertex="1" parent="1">
          <mxGeometry x="814" y="850" width="120" height="60" as="geometry" />
        </mxCell>
        <mxCell id="w8xizkPaOWsEXi7ShhKc-46" value="Fin" style="ellipse;whiteSpace=wrap;html=1;" vertex="1" parent="1">
          <mxGeometry x="814" y="940" width="120" height="80" as="geometry" />
        </mxCell>
        <mxCell id="w8xizkPaOWsEXi7ShhKc-58" value="" style="edgeStyle=orthogonalEdgeStyle;rounded=0;orthogonalLoop=1;jettySize=auto;html=1;" edge="1" parent="1" source="w8xizkPaOWsEXi7ShhKc-47" target="w8xizkPaOWsEXi7ShhKc-57">
          <mxGeometry relative="1" as="geometry" />
        </mxCell>
        <mxCell id="w8xizkPaOWsEXi7ShhKc-47" value="" style="ellipse;whiteSpace=wrap;html=1;aspect=fixed;" vertex="1" parent="1">
          <mxGeometry x="950" y="160" width="290" height="290" as="geometry" />
        </mxCell>
        <mxCell id="w8xizkPaOWsEXi7ShhKc-53" style="edgeStyle=orthogonalEdgeStyle;rounded=0;orthogonalLoop=1;jettySize=auto;html=1;entryX=0;entryY=0.5;entryDx=0;entryDy=0;" edge="1" parent="1" source="w8xizkPaOWsEXi7ShhKc-49" target="w8xizkPaOWsEXi7ShhKc-52">
          <mxGeometry relative="1" as="geometry" />
        </mxCell>
        <mxCell id="w8xizkPaOWsEXi7ShhKc-54" style="edgeStyle=orthogonalEdgeStyle;rounded=0;orthogonalLoop=1;jettySize=auto;html=1;entryX=0;entryY=0.5;entryDx=0;entryDy=0;" edge="1" parent="1" source="w8xizkPaOWsEXi7ShhKc-49" target="w8xizkPaOWsEXi7ShhKc-51">
          <mxGeometry relative="1" as="geometry" />
        </mxCell>
        <mxCell id="w8xizkPaOWsEXi7ShhKc-49" value="Sincronizar datos del dia" style="rounded=0;whiteSpace=wrap;html=1;" vertex="1" parent="1">
          <mxGeometry x="970" y="300" width="80" height="30" as="geometry" />
        </mxCell>
        <mxCell id="w8xizkPaOWsEXi7ShhKc-51" value="Descargar clientes asignado" style="rounded=0;whiteSpace=wrap;html=1;" vertex="1" parent="1">
          <mxGeometry x="1100" y="215" width="93" height="50" as="geometry" />
        </mxCell>
        <mxCell id="w8xizkPaOWsEXi7ShhKc-52" value="Descargar formularios" style="rounded=0;whiteSpace=wrap;html=1;" vertex="1" parent="1">
          <mxGeometry x="1100" y="350" width="93" height="50" as="geometry" />
        </mxCell>
        <mxCell id="w8xizkPaOWsEXi7ShhKc-60" value="" style="edgeStyle=orthogonalEdgeStyle;rounded=0;orthogonalLoop=1;jettySize=auto;html=1;" edge="1" parent="1" source="w8xizkPaOWsEXi7ShhKc-57" target="w8xizkPaOWsEXi7ShhKc-59">
          <mxGeometry relative="1" as="geometry" />
        </mxCell>
        <mxCell id="w8xizkPaOWsEXi7ShhKc-57" value="Guardar en BD local (movil)" style="whiteSpace=wrap;html=1;" vertex="1" parent="1">
          <mxGeometry x="1035" y="500" width="120" height="60" as="geometry" />
        </mxCell>
        <mxCell id="w8xizkPaOWsEXi7ShhKc-62" value="" style="edgeStyle=orthogonalEdgeStyle;rounded=0;orthogonalLoop=1;jettySize=auto;html=1;" edge="1" parent="1" source="w8xizkPaOWsEXi7ShhKc-59" target="w8xizkPaOWsEXi7ShhKc-61">
          <mxGeometry relative="1" as="geometry" />
        </mxCell>
        <mxCell id="w8xizkPaOWsEXi7ShhKc-59" value="Bandeja de clientes asignados" style="whiteSpace=wrap;html=1;" vertex="1" parent="1">
          <mxGeometry x="1035" y="605" width="120" height="60" as="geometry" />
        </mxCell>
        <mxCell id="w8xizkPaOWsEXi7ShhKc-64" value="" style="edgeStyle=orthogonalEdgeStyle;rounded=0;orthogonalLoop=1;jettySize=auto;html=1;" edge="1" parent="1" source="w8xizkPaOWsEXi7ShhKc-61" target="w8xizkPaOWsEXi7ShhKc-63">
          <mxGeometry relative="1" as="geometry" />
        </mxCell>
        <mxCell id="w8xizkPaOWsEXi7ShhKc-61" value="Seleccionar cliente" style="whiteSpace=wrap;html=1;" vertex="1" parent="1">
          <mxGeometry x="1035" y="700" width="120" height="60" as="geometry" />
        </mxCell>
        <mxCell id="w8xizkPaOWsEXi7ShhKc-66" value="" style="edgeStyle=orthogonalEdgeStyle;rounded=0;orthogonalLoop=1;jettySize=auto;html=1;" edge="1" parent="1" source="w8xizkPaOWsEXi7ShhKc-63" target="w8xizkPaOWsEXi7ShhKc-65">
          <mxGeometry relative="1" as="geometry" />
        </mxCell>
        <mxCell id="w8xizkPaOWsEXi7ShhKc-63" value="Renderizar formulario descargado" style="whiteSpace=wrap;html=1;" vertex="1" parent="1">
          <mxGeometry x="1035" y="790" width="120" height="60" as="geometry" />
        </mxCell>
        <mxCell id="w8xizkPaOWsEXi7ShhKc-72" value="" style="edgeStyle=orthogonalEdgeStyle;rounded=0;orthogonalLoop=1;jettySize=auto;html=1;" edge="1" parent="1" source="w8xizkPaOWsEXi7ShhKc-65" target="w8xizkPaOWsEXi7ShhKc-71">
          <mxGeometry relative="1" as="geometry" />
        </mxCell>
        <mxCell id="w8xizkPaOWsEXi7ShhKc-65" value="Capturar y guardar respuestas" style="whiteSpace=wrap;html=1;" vertex="1" parent="1">
          <mxGeometry x="1035" y="890" width="120" height="60" as="geometry" />
        </mxCell>
        <mxCell id="w8xizkPaOWsEXi7ShhKc-73" style="edgeStyle=orthogonalEdgeStyle;rounded=0;orthogonalLoop=1;jettySize=auto;html=1;exitX=0;exitY=0.5;exitDx=0;exitDy=0;" edge="1" parent="1" source="w8xizkPaOWsEXi7ShhKc-71" target="w8xizkPaOWsEXi7ShhKc-74">
          <mxGeometry relative="1" as="geometry">
            <mxPoint x="1000" y="1080" as="targetPoint" />
          </mxGeometry>
        </mxCell>
        <mxCell id="w8xizkPaOWsEXi7ShhKc-75" style="edgeStyle=orthogonalEdgeStyle;rounded=0;orthogonalLoop=1;jettySize=auto;html=1;" edge="1" parent="1" source="w8xizkPaOWsEXi7ShhKc-71" target="w8xizkPaOWsEXi7ShhKc-76">
          <mxGeometry relative="1" as="geometry">
            <mxPoint x="1210" y="1090" as="targetPoint" />
          </mxGeometry>
        </mxCell>
        <mxCell id="w8xizkPaOWsEXi7ShhKc-71" value="Â¿Hay red?" style="rhombus;whiteSpace=wrap;html=1;" vertex="1" parent="1">
          <mxGeometry x="1055" y="990" width="80" height="80" as="geometry" />
        </mxCell>
        <mxCell id="w8xizkPaOWsEXi7ShhKc-81" style="edgeStyle=orthogonalEdgeStyle;rounded=0;orthogonalLoop=1;jettySize=auto;html=1;entryX=0.5;entryY=0;entryDx=0;entryDy=0;" edge="1" parent="1" source="w8xizkPaOWsEXi7ShhKc-74" target="w8xizkPaOWsEXi7ShhKc-80">
          <mxGeometry relative="1" as="geometry" />
        </mxCell>
        <mxCell id="w8xizkPaOWsEXi7ShhKc-74" value="Enviar respuestas" style="rounded=0;whiteSpace=wrap;html=1;" vertex="1" parent="1">
          <mxGeometry x="915" y="1080" width="120" height="60" as="geometry" />
        </mxCell>
        <mxCell id="w8xizkPaOWsEXi7ShhKc-77" style="edgeStyle=orthogonalEdgeStyle;rounded=0;orthogonalLoop=1;jettySize=auto;html=1;exitX=1;exitY=0.5;exitDx=0;exitDy=0;entryX=0.5;entryY=0;entryDx=0;entryDy=0;" edge="1" parent="1" source="w8xizkPaOWsEXi7ShhKc-76" target="w8xizkPaOWsEXi7ShhKc-71">
          <mxGeometry relative="1" as="geometry" />
        </mxCell>
        <mxCell id="w8xizkPaOWsEXi7ShhKc-76" value="Guardar localmente (pendiente de envio)" style="rounded=0;whiteSpace=wrap;html=1;" vertex="1" parent="1">
          <mxGeometry x="1170" y="1080" width="120" height="60" as="geometry" />
        </mxCell>
        <mxCell id="w8xizkPaOWsEXi7ShhKc-78" value="Si" style="text;html=1;align=center;verticalAlign=middle;resizable=0;points=[];autosize=1;strokeColor=none;fillColor=none;" vertex="1" parent="1">
          <mxGeometry x="995" y="998" width="30" height="30" as="geometry" />
        </mxCell>
        <mxCell id="w8xizkPaOWsEXi7ShhKc-79" value="No" style="text;html=1;align=center;verticalAlign=middle;resizable=0;points=[];autosize=1;strokeColor=none;fillColor=none;" vertex="1" parent="1">
          <mxGeometry x="1160" y="998" width="40" height="30" as="geometry" />
        </mxCell>
        <mxCell id="w8xizkPaOWsEXi7ShhKc-80" value="Fin" style="ellipse;whiteSpace=wrap;html=1;" vertex="1" parent="1">
          <mxGeometry x="915" y="1180" width="120" height="80" as="geometry" />
        </mxCell>
      </root>
    </mxGraphModel>
  </diagram>
</mxfile>
